<?xml version="1.0" encoding="UTF-8" standalone="no"?>
<!DOCTYPE svg PUBLIC "-//W3C//DTD SVG 1.1//EN" "http://www.w3.org/Graphics/SVG/1.1/DTD/svg11.dtd">
<svg width="100%" height="100%" viewBox="0 0 500 95" version="1.1" xmlns="http://www.w3.org/2000/svg" xmlns:xlink="http://www.w3.org/1999/xlink" xml:space="preserve" xmlns:serif="http://www.serif.com/" style="fill-rule:evenodd;clip-rule:evenodd;stroke-linejoin:round;stroke-miterlimit:2;">
    <g transform="matrix(0.12762,3.05055e-33,3.05055e-33,-0.12762,-8.29807,110.03)">
        <g id="g10">
            <g id="g12">
                <path id="path14" d="M1882.13,675.141L1882.13,661.762L1815.1,661.762L1815.1,675.141L1840.92,675.141L1840.92,749.008L1815.57,749.008L1815.57,762.543L1881.66,762.543L1881.66,749.008L1856.31,749.008L1856.31,675.141L1882.13,675.141" style="fill:rgb(123,127,131);fill-rule:nonzero;"/>
                <path id="path16" d="M1944.1,749.008L1944.1,661.762L1928.55,661.762L1928.55,749.008L1898.22,749.008L1898.22,762.543L1974.43,762.543L1974.43,749.008L1944.1,749.008" style="fill:rgb(123,127,131);fill-rule:nonzero;"/>
                <path id="path18" d="M1988.89,695.668L2020.93,695.668L2020.93,746.988C2014.81,739.008 2009,730.609 2003.51,721.793C1998.01,712.984 1993.14,704.273 1988.89,695.668ZM2035.55,682.758L2035.55,661.762L2020.93,661.762L2020.93,682.758L1974.58,682.758L1973.03,692.711C1978.53,704.008 1985.39,715.961 1993.64,728.559C2001.88,741.156 2010.2,752.484 2018.6,762.543L2035.55,762.543L2035.55,695.668L2050.48,695.668L2050.48,682.758L2035.55,682.758" style="fill:rgb(123,127,131);fill-rule:nonzero;"/>
                <path id="path20" d="M2130.72,675.141L2130.72,661.762L2063.69,661.762L2063.69,675.141L2089.51,675.141L2089.51,749.008L2064.16,749.008L2064.16,762.543L2130.25,762.543L2130.25,749.008L2104.91,749.008L2104.91,675.141L2130.72,675.141" style="fill:rgb(123,127,131);fill-rule:nonzero;"/>
                <path id="path22" d="M2215.79,661.762L2196.67,661.762L2163.54,742.172L2163.54,661.762L2149.7,661.762L2149.7,762.543L2168.67,762.543L2201.95,681.988L2201.95,762.543L2215.79,762.543L2215.79,661.762" style="fill:rgb(123,127,131);fill-rule:nonzero;"/>
                <path id="path24" d="M2304.45,661.762L2285.32,661.762L2252.2,742.172L2252.2,661.762L2238.35,661.762L2238.35,762.543L2257.33,762.543L2290.61,681.988L2290.61,762.543L2304.45,762.543L2304.45,661.762" style="fill:rgb(123,127,131);fill-rule:nonzero;"/>
                <path id="path26" d="M2339.12,712.621C2339.12,699.352 2340.85,689.605 2344.33,683.383C2347.8,677.164 2353.21,674.047 2360.58,674.047C2368.04,674.047 2373.51,677.105 2376.99,683.227C2380.46,689.34 2382.2,698.832 2382.2,711.684C2382.2,724.75 2380.46,734.418 2376.99,740.688C2373.51,746.969 2368.04,750.102 2360.58,750.102C2353.11,750.102 2347.67,747.094 2344.25,741.078C2340.83,735.063 2339.12,725.582 2339.12,712.621ZM2398.37,711.684C2398.37,694.996 2395.13,682.242 2388.65,673.434C2382.17,664.613 2372.81,660.211 2360.58,660.211C2348.03,660.211 2338.62,664.566 2332.35,673.277C2326.07,681.988 2322.94,695.094 2322.94,712.621C2322.94,729.203 2326.21,741.938 2332.74,750.797C2339.27,759.664 2348.55,764.098 2360.58,764.098C2373.23,764.098 2382.69,759.742 2388.96,751.031C2395.23,742.328 2398.37,729.203 2398.37,711.684" style="fill:rgb(123,127,131);fill-rule:nonzero;"/>
                <path id="path28" d="M2486.06,762.543L2457.92,661.762L2435.68,661.762L2407.53,762.543L2423.86,762.543L2447.03,674.047L2470.21,762.543L2486.06,762.543" style="fill:rgb(123,127,131);fill-rule:nonzero;"/>
                <path id="path30" d="M2528.38,751.344L2514.54,701.734L2542.07,701.734L2528.38,751.344ZM2569.13,661.762L2553.11,661.762L2545.64,688.512L2510.96,688.512L2503.5,661.762L2488.1,661.762L2517.5,762.543L2539.74,762.543L2569.13,661.762" style="fill:rgb(123,127,131);fill-rule:nonzero;"/>
                <path id="path32" d="M2615.35,749.008L2615.35,661.762L2599.79,661.762L2599.79,749.008L2569.47,749.008L2569.47,762.543L2645.67,762.543L2645.67,749.008L2615.35,749.008" style="fill:rgb(123,127,131);fill-rule:nonzero;"/>
                <path id="path34" d="M2728.87,675.141L2728.87,661.762L2661.84,661.762L2661.84,675.141L2687.66,675.141L2687.66,749.008L2662.31,749.008L2662.31,762.543L2728.4,762.543L2728.4,749.008L2703.06,749.008L2703.06,675.141L2728.87,675.141" style="fill:rgb(123,127,131);fill-rule:nonzero;"/>
                <path id="path36" d="M2758.25,712.621C2758.25,699.352 2759.99,689.605 2763.46,683.383C2766.93,677.164 2772.35,674.047 2779.71,674.047C2787.18,674.047 2792.65,677.105 2796.12,683.227C2799.59,689.34 2801.33,698.832 2801.33,711.684C2801.33,724.75 2799.59,734.418 2796.12,740.688C2792.65,746.969 2787.18,750.102 2779.71,750.102C2772.25,750.102 2766.81,747.094 2763.38,741.078C2759.96,735.063 2758.25,725.582 2758.25,712.621ZM2817.5,711.684C2817.5,694.996 2814.26,682.242 2807.78,673.434C2801.3,664.613 2791.95,660.211 2779.71,660.211C2767.17,660.211 2757.76,664.566 2751.48,673.277C2745.21,681.988 2742.08,695.094 2742.08,712.621C2742.08,729.203 2745.34,741.938 2751.88,750.797C2758.41,759.664 2767.69,764.098 2779.71,764.098C2792.36,764.098 2801.82,759.742 2808.1,751.031C2814.37,742.328 2817.5,729.203 2817.5,711.684" style="fill:rgb(123,127,131);fill-rule:nonzero;"/>
                <path id="path38" d="M2902.16,661.762L2883.04,661.762L2849.91,742.172L2849.91,661.762L2836.07,661.762L2836.07,762.543L2855.04,762.543L2888.33,681.988L2888.33,762.543L2902.16,762.543L2902.16,661.762" style="fill:rgb(123,127,131);fill-rule:nonzero;"/>
                <path id="path40" d="M2988.55,688.668C2988.55,680.063 2985.5,673.168 2979.38,667.984C2973.26,662.797 2965.02,660.211 2954.65,660.211C2948.84,660.211 2942.89,661.039 2936.77,662.699C2930.65,664.359 2925.16,666.684 2920.28,669.691L2926.97,681.988C2931.95,679.078 2936.71,676.949 2941.28,675.609C2945.84,674.254 2950.4,673.59 2954.97,673.59C2960.56,673.59 2964.92,674.801 2968.03,677.242C2971.14,679.672 2972.7,683.168 2972.7,687.738C2972.7,691.051 2971.45,694.008 2968.96,696.605C2966.47,699.195 2960.98,702.301 2952.48,705.934C2946.77,708.422 2942.57,710.445 2939.88,711.996C2937.18,713.551 2934.9,715.16 2933.04,716.82C2930.03,719.516 2927.8,722.496 2926.35,725.758C2924.9,729.027 2924.17,732.68 2924.17,736.723C2924.17,744.809 2927.07,751.391 2932.88,756.48C2938.69,761.559 2946.3,764.098 2955.74,764.098C2961.24,764.098 2966.63,763.375 2971.91,761.918C2977.2,760.465 2982.33,758.344 2987.31,755.543L2981.09,743.258C2976.53,745.746 2972.17,747.582 2968.03,748.773C2963.88,749.965 2959.83,750.57 2955.9,750.57C2950.92,750.57 2947.01,749.371 2944.16,746.988C2941.3,744.605 2939.88,741.441 2939.88,737.504C2939.88,734.184 2941.15,731.254 2943.69,728.715C2946.23,726.176 2951.75,723.043 2960.25,719.313C2965.85,716.715 2970,714.664 2972.7,713.168C2975.39,711.664 2977.67,710.082 2979.54,708.422C2982.65,705.727 2984.93,702.75 2986.38,699.477C2987.83,696.215 2988.55,692.613 2988.55,688.668" style="fill:rgb(123,127,131);fill-rule:nonzero;"/>
                <path id="path42" d="M1881.66,475.141L1862.53,475.141L1829.41,555.543L1829.41,475.141L1815.57,475.141L1815.57,575.914L1834.54,575.914L1867.82,495.355L1867.82,575.914L1881.66,575.914L1881.66,475.141" style="fill:rgb(123,127,131);fill-rule:nonzero;"/>
                <path id="path44" d="M1937.35,564.723L1923.51,515.113L1951.04,515.113L1937.35,564.723ZM1978.1,475.141L1962.08,475.141L1954.61,501.891L1919.93,501.891L1912.47,475.141L1897.07,475.141L1926.46,575.914L1948.71,575.914L1978.1,475.141" style="fill:rgb(123,127,131);fill-rule:nonzero;"/>
                <path id="path46" d="M2024.32,562.387L2024.32,475.141L2008.76,475.141L2008.76,562.387L1978.44,562.387L1978.44,575.914L2054.64,575.914L2054.64,562.387L2024.32,562.387" style="fill:rgb(123,127,131);fill-rule:nonzero;"/>
                <path id="path48" d="M2137.85,488.512L2137.85,475.141L2070.82,475.141L2070.82,488.512L2096.64,488.512L2096.64,562.387L2071.28,562.387L2071.28,575.914L2137.38,575.914L2137.38,562.387L2112.03,562.387L2112.03,488.512L2137.85,488.512" style="fill:rgb(123,127,131);fill-rule:nonzero;"/>
                <path id="path50" d="M2167.22,525.992C2167.22,512.719 2168.96,502.973 2172.43,496.754C2175.9,490.531 2181.32,487.426 2188.68,487.426C2196.15,487.426 2201.62,490.484 2205.09,496.598C2208.56,502.719 2210.3,512.203 2210.3,525.063C2210.3,538.121 2208.56,547.789 2205.09,554.066C2201.62,560.336 2196.15,563.473 2188.68,563.473C2181.22,563.473 2175.78,560.465 2172.35,554.457C2168.93,548.441 2167.22,538.949 2167.22,525.992ZM2226.47,525.063C2226.47,508.363 2223.23,495.609 2216.75,486.801C2210.27,477.992 2200.92,473.578 2188.68,473.578C2176.14,473.578 2166.73,477.934 2160.45,486.645C2154.18,495.355 2151.04,508.473 2151.04,525.992C2151.04,542.582 2154.31,555.309 2160.84,564.176C2167.38,573.043 2176.66,577.477 2188.68,577.477C2201.33,577.477 2210.79,573.121 2217.07,564.41C2223.33,555.699 2226.47,542.582 2226.47,525.063" style="fill:rgb(123,127,131);fill-rule:nonzero;"/>
                <path id="path52" d="M2311.14,475.141L2292.01,475.141L2258.89,555.543L2258.89,475.141L2245.04,475.141L2245.04,575.914L2264.02,575.914L2297.3,495.355L2297.3,575.914L2311.14,575.914L2311.14,475.141" style="fill:rgb(123,127,131);fill-rule:nonzero;"/>
                <path id="path54" d="M2366.83,564.723L2352.99,515.113L2380.51,515.113L2366.83,564.723ZM2407.57,475.141L2391.56,475.141L2384.09,501.891L2349.41,501.891L2341.94,475.141L2326.55,475.141L2355.94,575.914L2378.18,575.914L2407.57,475.141" style="fill:rgb(123,127,131);fill-rule:nonzero;"/>
                <path id="path56" d="M2440.85,488.512L2488.13,488.512L2488.13,475.141L2425.15,475.141L2425.15,575.914L2440.85,575.914L2440.85,488.512" style="fill:rgb(123,127,131);fill-rule:nonzero;"/>
                <path id="path58" d="M2622.34,502.047C2622.34,493.434 2619.29,486.547 2613.17,481.363C2607.05,476.176 2598.81,473.578 2588.44,473.578C2582.63,473.578 2576.67,474.418 2570.56,476.07C2564.44,477.73 2558.95,480.063 2554.07,483.07L2560.76,495.355C2565.74,492.457 2570.5,490.328 2575.07,488.98C2579.63,487.633 2584.19,486.957 2588.75,486.957C2594.35,486.957 2598.71,488.18 2601.82,490.609C2604.93,493.051 2606.48,496.547 2606.48,501.109C2606.48,504.43 2605.24,507.387 2602.75,509.977C2600.26,512.563 2594.77,515.68 2586.26,519.313C2580.56,521.793 2576.36,523.813 2573.67,525.375C2570.97,526.93 2568.69,528.531 2566.83,530.191C2563.82,532.887 2561.59,535.875 2560.14,539.137C2558.69,542.398 2557.96,546.059 2557.96,550.102C2557.96,558.188 2560.86,564.77 2566.67,569.848C2572.48,574.926 2580.09,577.477 2589.53,577.477C2595.02,577.477 2600.42,576.742 2605.7,575.297C2610.99,573.844 2616.12,571.715 2621.1,568.922L2614.88,556.637C2610.32,559.117 2605.96,560.961 2601.82,562.152C2597.67,563.344 2593.62,563.941 2589.69,563.941C2584.71,563.941 2580.8,562.75 2577.94,560.367C2575.09,557.973 2573.67,554.82 2573.67,550.875C2573.67,547.555 2574.94,544.633 2577.48,542.094C2580.01,539.547 2585.54,536.41 2594.04,532.68C2599.64,530.094 2603.78,528.043 2606.48,526.539C2609.17,525.035 2611.46,523.453 2613.33,521.793C2616.44,519.098 2618.72,516.117 2620.17,512.855C2621.62,509.586 2622.34,505.98 2622.34,502.047" style="fill:rgb(123,127,131);fill-rule:nonzero;"/>
                <path id="path60" d="M2675.14,487.426C2681.05,487.426 2685.61,489.086 2688.83,492.398C2692.04,495.719 2693.65,500.434 2693.65,506.559L2693.65,575.914L2708.89,575.914L2708.89,506.559C2708.89,496.598 2705.81,488.617 2699.63,482.602C2693.47,476.586 2685.3,473.578 2675.14,473.578C2664.88,473.578 2656.61,476.586 2650.34,482.602C2644.06,488.617 2640.93,496.598 2640.93,506.559L2640.93,575.914L2656.64,575.914L2656.64,506.559C2656.64,500.434 2658.24,495.719 2661.46,492.398C2664.67,489.086 2669.23,487.426 2675.14,487.426" style="fill:rgb(123,127,131);fill-rule:nonzero;"/>
                <path id="path62" d="M2784.37,544.965C2784.37,550.465 2782.68,554.742 2779.31,557.797C2775.94,560.855 2771.3,562.387 2765.39,562.387L2747.5,562.387L2747.5,526.93L2765.39,526.93C2771.51,526.93 2776.2,528.48 2779.46,531.598C2782.73,534.703 2784.37,539.156 2784.37,544.965ZM2747.5,513.551L2747.5,475.141L2731.8,475.141L2731.8,575.914L2765.85,575.914C2776.33,575.914 2784.67,573.199 2790.89,567.75C2797.11,562.309 2800.22,554.82 2800.22,545.277C2800.22,535.219 2797.14,527.418 2790.97,521.871C2784.8,516.324 2776.43,513.551 2765.85,513.551L2747.5,513.551" style="fill:rgb(123,127,131);fill-rule:nonzero;"/>
                <path id="path64" d="M2835.12,488.512L2880.69,488.512L2880.69,475.141L2819.41,475.141L2819.41,575.914L2880.69,575.914L2880.69,562.387L2835.12,562.387L2835.12,532.992L2873.85,532.992L2873.85,519.457L2835.12,519.457L2835.12,488.512" style="fill:rgb(123,127,131);fill-rule:nonzero;"/>
                <path id="path66" d="M2952.6,546.371C2952.6,551.449 2951.02,555.387 2947.86,558.188C2944.7,560.98 2940.32,562.387 2934.72,562.387L2916.21,562.387L2916.21,529.879L2934.72,529.879C2940.42,529.879 2944.83,531.305 2947.94,534.156C2951.05,537.008 2952.6,541.078 2952.6,546.371ZM2916.21,516.352L2916.21,475.141L2900.5,475.141L2900.5,575.914L2934.87,575.914C2945.14,575.914 2953.31,573.324 2959.37,568.141C2965.43,562.953 2968.47,555.797 2968.47,546.676C2968.47,539.527 2966.73,533.539 2963.26,528.715C2959.78,523.891 2954.78,520.492 2948.25,518.531L2972.2,475.141L2954.47,475.141L2932.54,516.352L2916.21,516.352" style="fill:rgb(123,127,131);fill-rule:nonzero;"/>
                <path id="path68" d="M3027.09,473.578C3013.51,473.578 3003.17,478.043 2996.07,486.957C2988.96,495.875 2985.42,508.891 2985.42,525.992C2985.42,542.066 2989.12,554.664 2996.53,563.785C3003.95,572.906 3014.18,577.477 3027.25,577.477C3032.54,577.477 3037.46,576.82 3042.02,575.523C3046.58,574.234 3051.09,572.184 3055.55,569.379L3048.4,557.094C3044.87,559.273 3041.38,560.883 3037.9,561.918C3034.43,562.953 3030.98,563.473 3027.56,563.473C3018.96,563.473 3012.48,560.336 3008.12,554.066C3003.76,547.789 3001.59,538.434 3001.59,525.992C3001.59,513.031 3003.71,503.363 3007.96,496.988C3012.22,490.609 3018.75,487.426 3027.56,487.426C3031.6,487.426 3035.28,487.945 3038.6,488.98C3041.91,490.016 3045.75,491.879 3050.11,494.574L3056.8,483.07C3052.44,479.957 3047.72,477.602 3042.65,475.992C3037.56,474.391 3032.38,473.578 3027.09,473.578" style="fill:rgb(123,127,131);fill-rule:nonzero;"/>
                <path id="path70" d="M3082.91,525.992C3082.91,512.719 3084.64,502.973 3088.12,496.754C3091.59,490.531 3097,487.426 3104.37,487.426C3111.84,487.426 3117.3,490.484 3120.78,496.598C3124.25,502.719 3125.99,512.203 3125.99,525.063C3125.99,538.121 3124.25,547.789 3120.78,554.066C3117.3,560.336 3111.84,563.473 3104.37,563.473C3096.9,563.473 3091.46,560.465 3088.04,554.457C3084.62,548.441 3082.91,538.949 3082.91,525.992ZM3142.16,525.063C3142.16,508.363 3138.92,495.609 3132.44,486.801C3125.96,477.992 3116.6,473.578 3104.37,473.578C3091.83,473.578 3082.41,477.934 3076.14,486.645C3069.86,495.355 3066.73,508.473 3066.73,525.992C3066.73,542.582 3070,555.309 3076.53,564.176C3083.07,573.043 3092.34,577.477 3104.37,577.477C3117.02,577.477 3126.47,573.121 3132.75,564.41C3139.02,555.699 3142.16,542.582 3142.16,525.063" style="fill:rgb(123,127,131);fill-rule:nonzero;"/>
                <path id="path72" d="M3172.32,554.762L3172.32,475.141L3158.49,475.141L3158.49,575.914L3176.68,575.914L3196.28,525.219L3215.56,575.914L3233.6,575.914L3233.6,475.141L3219.76,475.141L3219.76,554.762L3201.72,508.578L3190.37,508.578L3172.32,554.762" style="fill:rgb(123,127,131);fill-rule:nonzero;"/>
                <path id="path74" d="M3307.43,544.965C3307.43,550.465 3305.74,554.742 3302.37,557.797C3299,560.855 3294.37,562.387 3288.46,562.387L3270.57,562.387L3270.57,526.93L3288.46,526.93C3294.57,526.93 3299.27,528.48 3302.53,531.598C3305.79,534.703 3307.43,539.156 3307.43,544.965ZM3270.57,513.551L3270.57,475.141L3254.86,475.141L3254.86,575.914L3288.92,575.914C3299.39,575.914 3307.73,573.199 3313.96,567.75C3320.18,562.309 3323.29,554.82 3323.29,545.277C3323.29,535.219 3320.21,527.418 3314.03,521.871C3307.87,516.324 3299.49,513.551 3288.92,513.551L3270.57,513.551" style="fill:rgb(123,127,131);fill-rule:nonzero;"/>
                <path id="path76" d="M3374.14,487.426C3380.05,487.426 3384.61,489.086 3387.83,492.398C3391.04,495.719 3392.65,500.434 3392.65,506.559L3392.65,575.914L3407.89,575.914L3407.89,506.559C3407.89,496.598 3404.8,488.617 3398.63,482.602C3392.47,476.586 3384.31,473.578 3374.14,473.578C3363.88,473.578 3355.61,476.586 3349.34,482.602C3343.07,488.617 3339.93,496.598 3339.93,506.559L3339.93,575.914L3355.63,575.914L3355.63,506.559C3355.63,500.434 3357.25,495.719 3360.46,492.398C3363.67,489.086 3368.23,487.426 3374.14,487.426" style="fill:rgb(123,127,131);fill-rule:nonzero;"/>
                <path id="path78" d="M3469.88,562.387L3469.88,475.141L3454.33,475.141L3454.33,562.387L3424,562.387L3424,575.914L3500.21,575.914L3500.21,562.387L3469.88,562.387" style="fill:rgb(123,127,131);fill-rule:nonzero;"/>
                <path id="path80" d="M3583.41,488.512L3583.41,475.141L3516.38,475.141L3516.38,488.512L3542.2,488.512L3542.2,562.387L3516.85,562.387L3516.85,575.914L3582.94,575.914L3582.94,562.387L3557.6,562.387L3557.6,488.512L3583.41,488.512" style="fill:rgb(123,127,131);fill-rule:nonzero;"/>
                <path id="path82" d="M3668.46,475.141L3649.34,475.141L3616.21,555.543L3616.21,475.141L3602.36,475.141L3602.36,575.914L3621.34,575.914L3654.62,495.355L3654.62,575.914L3668.46,575.914L3668.46,475.141" style="fill:rgb(123,127,131);fill-rule:nonzero;"/>
                <path id="path84" d="M3729.7,473.578C3715.91,473.578 3705.41,478.012 3698.21,486.879C3691.01,495.746 3687.4,508.785 3687.4,525.992C3687.4,542.27 3691.08,554.918 3698.45,563.941C3705.8,572.965 3716.12,577.477 3729.38,577.477C3734.58,577.477 3739.38,576.898 3743.86,575.758C3748.31,574.613 3752.67,572.809 3756.92,570.316L3750.07,557.719C3746.87,559.586 3743.51,561.012 3740.05,561.996C3736.57,562.984 3733.12,563.473 3729.7,563.473C3720.89,563.473 3714.33,560.387 3710.03,554.223C3705.72,548.051 3703.57,538.637 3703.57,525.992C3703.57,513.031 3705.75,503.363 3710.11,496.988C3714.46,490.609 3721.08,487.426 3730.01,487.426C3732.71,487.426 3735.17,487.633 3737.39,488.051C3739.62,488.461 3741.88,489.137 3744.17,490.074L3744.17,524.125L3759.09,524.125L3759.09,482.602C3755.05,479.809 3750.44,477.602 3745.24,475.992C3740.07,474.391 3734.87,473.578 3729.7,473.578" style="fill:rgb(123,127,131);fill-rule:nonzero;"/>
                <path id="path86" d="M1856.31,286.957C1842.73,286.957 1832.39,291.422 1825.29,300.336C1818.18,309.254 1814.63,322.27 1814.63,339.371C1814.63,355.445 1818.34,368.043 1825.75,377.164C1833.16,386.285 1843.4,390.855 1856.47,390.855C1861.76,390.855 1866.68,390.199 1871.24,388.902C1875.81,387.613 1880.31,385.563 1884.77,382.758L1877.62,370.473C1874.09,372.652 1870.6,374.262 1867.12,375.297C1863.65,376.332 1860.2,376.852 1856.78,376.852C1848.17,376.852 1841.69,373.715 1837.34,367.445C1832.98,361.168 1830.81,351.813 1830.81,339.371C1830.81,326.41 1832.93,316.742 1837.18,310.367C1841.44,303.988 1847.96,300.805 1856.78,300.805C1860.82,300.805 1864.5,301.324 1867.82,302.359C1871.14,303.395 1874.98,305.258 1879.33,307.953L1886.02,296.449C1881.66,293.336 1876.94,290.98 1871.87,289.371C1866.78,287.77 1861.6,286.957 1856.31,286.957" style="fill:rgb(123,127,131);fill-rule:nonzero;"/>
                <path id="path88" d="M1920.76,301.891L1966.33,301.891L1966.33,288.52L1905.05,288.52L1905.05,389.293L1966.33,389.293L1966.33,375.766L1920.76,375.766L1920.76,346.371L1959.49,346.371L1959.49,332.836L1920.76,332.836L1920.76,301.891" style="fill:rgb(123,127,131);fill-rule:nonzero;"/>
                <path id="path90" d="M2051.92,288.52L2032.79,288.52L1999.67,368.922L1999.67,288.52L1985.83,288.52L1985.83,389.293L2004.8,389.293L2038.08,308.734L2038.08,389.293L2051.92,389.293L2051.92,288.52" style="fill:rgb(123,127,131);fill-rule:nonzero;"/>
                <path id="path92" d="M2114.37,375.766L2114.37,288.52L2098.81,288.52L2098.81,375.766L2068.49,375.766L2068.49,389.293L2144.69,389.293L2144.69,375.766L2114.37,375.766" style="fill:rgb(123,127,131);fill-rule:nonzero;"/>
                <path id="path94" d="M2179.14,301.891L2224.7,301.891L2224.7,288.52L2163.43,288.52L2163.43,389.293L2224.7,389.293L2224.7,375.766L2179.14,375.766L2179.14,346.371L2217.86,346.371L2217.86,332.836L2179.14,332.836L2179.14,301.891" style="fill:rgb(123,127,131);fill-rule:nonzero;"/>
                <path id="path96" d="M2296.61,359.75C2296.61,364.828 2295.03,368.766 2291.87,371.566C2288.71,374.359 2284.33,375.766 2278.73,375.766L2260.22,375.766L2260.22,343.258L2278.73,343.258C2284.43,343.258 2288.84,344.684 2291.95,347.535C2295.06,350.387 2296.61,354.457 2296.61,359.75ZM2260.22,329.73L2260.22,288.52L2244.51,288.52L2244.51,389.293L2278.88,389.293C2289.15,389.293 2297.31,386.703 2303.38,381.52C2309.44,376.332 2312.48,369.176 2312.48,360.055C2312.48,352.906 2310.74,346.918 2307.27,342.094C2303.79,337.27 2298.79,333.871 2292.26,331.91L2316.21,288.52L2298.48,288.52L2276.55,329.73L2260.22,329.73" style="fill:rgb(123,127,131);fill-rule:nonzero;"/>
                <rect id="path98" x="1693.13" y="287.48" width="16" height="475" style="fill:rgb(123,127,131);"/>
                <rect id="path100" x="292.617" y="390.859" width="15.996" height="186.797" style="fill:rgb(27,171,154);"/>
                <rect id="path102" x="477.012" y="339.57" width="15.996" height="186.895" style="fill:rgb(27,171,154);"/>
                <rect id="path104" x="538.484" y="390.859" width="15.996" height="186.797" style="fill:rgb(27,171,154);"/>
                <rect id="path106" x="415.547" y="288.281" width="15.996" height="186.816" style="fill:rgb(27,171,154);"/>
                <rect id="path108" x="354.082" y="339.648" width="15.996" height="186.816" style="fill:rgb(27,171,154);"/>
                <path id="path110" d="M369.543,762.543L342.48,661.762L315.891,661.762L288.828,762.543L308.266,762.543L329.574,676.852L350.727,762.543L369.543,762.543" style="fill:rgb(27,171,154);fill-rule:nonzero;"/>
                <path id="path112" d="M459.898,689.449C459.898,680.531 456.785,673.434 450.566,668.141C444.348,662.855 435.895,660.211 425.219,660.211C419.309,660.211 413.188,661.039 406.863,662.699C400.543,664.359 394.84,666.684 389.762,669.691L397.227,684.938C402.305,682.035 407.148,679.887 411.77,678.48C416.379,677.086 420.969,676.383 425.527,676.383C430.398,676.383 434.184,677.398 436.879,679.418C439.574,681.441 440.922,684.371 440.922,688.207C440.922,691.109 439.785,693.668 437.504,695.902C435.219,698.129 430.141,700.902 422.262,704.223C416.352,706.715 412.02,708.754 409.277,710.367C406.527,711.969 404.172,713.656 402.203,715.414C399.195,718.109 396.965,721.148 395.512,724.516C394.063,727.887 393.336,731.645 393.336,735.797C393.336,744.195 396.344,751.012 402.359,756.246C408.367,761.48 416.301,764.098 426.152,764.098C431.852,764.098 437.449,763.344 442.949,761.84C448.441,760.336 453.676,758.188 458.652,755.387L451.813,740.309C447.043,742.789 442.559,744.652 438.359,745.902C434.16,747.145 430.09,747.77 426.152,747.77C421.898,747.77 418.555,746.781 416.117,744.809C413.684,742.848 412.465,740.25 412.465,737.035C412.465,734.137 413.633,731.539 415.961,729.262C418.297,726.977 423.453,724.078 431.441,720.551C437.141,717.953 441.34,715.883 444.039,714.332C446.73,712.777 449.016,711.117 450.879,709.352C453.988,706.762 456.27,703.805 457.719,700.492C459.172,697.172 459.898,693.492 459.898,689.449" style="fill:rgb(27,171,154);fill-rule:nonzero;"/>
                <path id="path114" d="M539.836,692.094C539.836,696.969 538.305,700.512 535.25,702.75C532.188,704.977 527.34,706.09 520.703,706.09L507.641,706.09L507.641,677.32L521.641,677.32C527.754,677.32 532.313,678.531 535.32,680.973C538.328,683.402 539.836,687.113 539.836,692.094ZM535.793,734.703C535.793,738.852 534.469,741.91 531.824,743.883C529.18,745.844 525.113,746.832 519.617,746.832L507.641,746.832L507.641,721.176L519.617,721.176C525.004,721.176 529.047,722.309 531.746,724.594C534.441,726.871 535.793,730.25 535.793,734.703ZM488.824,762.543L521.949,762.543C532.313,762.543 540.461,760.367 546.367,756.012C552.273,751.656 555.23,745.531 555.23,737.66C555.23,732.367 553.91,727.758 551.266,723.813C548.621,719.879 544.863,716.871 539.988,714.801C546.313,712.934 551.109,710.004 554.375,706.012C557.641,702.016 559.273,697.066 559.273,691.156C559.273,682.035 556.137,674.848 549.863,669.613C543.59,664.379 535.172,661.762 524.594,661.762L488.824,661.762L488.824,762.543" style="fill:rgb(27,171,154);fill-rule:nonzero;"/>
                <path id="path116" d="M714.949,749.32L714.949,662.074L699.402,662.074L699.402,749.32L669.07,749.32L669.07,762.855L745.281,762.855L745.281,749.32L714.949,749.32" style="fill:rgb(27,171,154);fill-rule:nonzero;"/>
                <path id="path118" d="M787.5,675.453L833.066,675.453L833.066,662.074L771.797,662.074L771.797,762.855L833.066,762.855L833.066,749.32L787.5,749.32L787.5,719.926L826.23,719.926L826.23,706.402L787.5,706.402L787.5,675.453" style="fill:rgb(27,171,154);fill-rule:nonzero;"/>
                <path id="path120" d="M899.68,660.523C886.094,660.523 875.754,664.977 868.652,673.902C861.543,682.816 857.996,695.824 857.996,712.934C857.996,729 861.699,741.598 869.109,750.727C876.523,759.848 886.77,764.41 899.836,764.41C905.117,764.41 910.039,763.766 914.602,762.465C919.172,761.168 923.672,759.125 928.137,756.324L920.977,744.039C917.449,746.215 913.953,747.816 910.48,748.863C907.012,749.898 903.563,750.414 900.137,750.414C891.531,750.414 885.059,747.281 880.703,741C876.348,734.73 874.172,725.375 874.172,712.934C874.172,699.977 876.289,690.309 880.547,683.93C884.797,677.555 891.328,674.359 900.137,674.359C904.18,674.359 907.859,674.879 911.184,675.922C914.504,676.957 918.34,678.824 922.695,681.52L929.375,670.004C925.02,666.898 920.305,664.535 915.227,662.934C910.145,661.324 904.961,660.523 899.68,660.523" style="fill:rgb(27,171,154);fill-rule:nonzero;"/>
                <path id="path122" d="M972.383,707.797L972.383,662.074L956.672,662.074L956.672,762.855L972.383,762.855L972.383,721.332L1009.24,721.332L1009.24,762.855L1024.94,762.855L1024.94,662.074L1009.24,662.074L1009.24,707.797L972.383,707.797" style="fill:rgb(27,171,154);fill-rule:nonzero;"/>
                <path id="path124" d="M1124.04,662.074L1104.91,662.074L1071.79,742.484L1071.79,662.074L1057.95,662.074L1057.95,762.855L1076.92,762.855L1110.21,682.301L1110.21,762.855L1124.04,762.855L1124.04,662.074" style="fill:rgb(27,171,154);fill-rule:nonzero;"/>
                <path id="path126" d="M1219.28,675.453L1219.28,662.074L1152.25,662.074L1152.25,675.453L1178.07,675.453L1178.07,749.32L1152.71,749.32L1152.71,762.855L1218.81,762.855L1218.81,749.32L1193.47,749.32L1193.47,675.453L1219.28,675.453" style="fill:rgb(27,171,154);fill-rule:nonzero;"/>
                <path id="path128" d="M1283.24,660.523C1269.66,660.523 1259.32,664.977 1252.22,673.902C1245.12,682.816 1241.56,695.824 1241.56,712.934C1241.56,729 1245.27,741.598 1252.69,750.727C1260.1,759.848 1270.33,764.41 1283.4,764.41C1288.69,764.41 1293.61,763.766 1298.17,762.465C1302.73,761.168 1307.25,759.125 1311.7,756.324L1304.55,744.039C1301.03,746.215 1297.53,747.816 1294.05,748.863C1290.58,749.898 1287.13,750.414 1283.71,750.414C1275.11,750.414 1268.62,747.281 1264.27,741C1259.91,734.73 1257.73,725.375 1257.73,712.934C1257.73,699.977 1259.86,690.309 1264.11,683.93C1268.37,677.555 1274.89,674.359 1283.71,674.359C1287.75,674.359 1291.44,674.879 1294.76,675.922C1298.07,676.957 1301.9,678.824 1306.26,681.52L1312.95,670.004C1308.59,666.898 1303.88,664.535 1298.8,662.934C1293.71,661.324 1288.54,660.523 1283.24,660.523" style="fill:rgb(27,171,154);fill-rule:nonzero;"/>
                <path id="path130" d="M1371.99,751.656L1358.15,702.047L1385.68,702.047L1371.99,751.656ZM1412.74,662.074L1396.73,662.074L1389.26,688.824L1354.58,688.824L1347.11,662.074L1331.72,662.074L1361.11,762.855L1383.35,762.855L1412.74,662.074" style="fill:rgb(27,171,154);fill-rule:nonzero;"/>
                <path id="path132" d="M1455.36,675.453L1502.64,675.453L1502.64,662.074L1439.65,662.074L1439.65,762.855L1455.36,762.855L1455.36,675.453" style="fill:rgb(27,171,154);fill-rule:nonzero;"/>
                <path id="path134" d="M707.488,487.738C713.398,487.738 717.961,489.398 721.172,492.711C724.387,496.031 725.996,500.746 725.996,506.871L725.996,576.227L741.238,576.227L741.238,506.871C741.238,496.91 738.152,488.93 731.98,482.914C725.813,476.898 717.645,473.891 707.488,473.891C697.227,473.891 688.953,476.898 682.688,482.914C676.406,488.93 673.27,496.91 673.27,506.871L673.27,576.227L688.984,576.227L688.984,506.871C688.984,500.746 690.586,496.031 693.801,492.711C697.012,489.398 701.582,487.738 707.488,487.738" style="fill:rgb(27,171,154);fill-rule:nonzero;"/>
                <path id="path136" d="M840.203,475.453L821.074,475.453L787.949,555.855L787.949,475.453L774.109,475.453L774.109,576.227L793.086,576.227L826.367,495.668L826.367,576.227L840.203,576.227L840.203,475.453" style="fill:rgb(27,171,154);fill-rule:nonzero;"/>
                <path id="path138" d="M935.449,488.824L935.449,475.453L868.418,475.453L868.418,488.824L894.238,488.824L894.238,562.699L868.887,562.699L868.887,576.227L934.98,576.227L934.98,562.699L909.629,562.699L909.629,488.824L935.449,488.824" style="fill:rgb(27,171,154);fill-rule:nonzero;"/>
                <path id="path140" d="M1031.1,576.227L1002.96,475.453L980.715,475.453L952.566,576.227L968.895,576.227L992.07,487.738L1015.24,576.227L1031.1,576.227" style="fill:rgb(27,171,154);fill-rule:nonzero;"/>
                <path id="path142" d="M1072.78,488.824L1118.35,488.824L1118.35,475.453L1057.08,475.453L1057.08,576.227L1118.35,576.227L1118.35,562.699L1072.78,562.699L1072.78,533.305L1111.51,533.305L1111.51,519.77L1072.78,519.77L1072.78,488.824" style="fill:rgb(27,171,154);fill-rule:nonzero;"/>
                <path id="path144" d="M1201.14,546.684C1201.14,551.762 1199.56,555.699 1196.41,558.5C1193.24,561.293 1188.86,562.699 1183.26,562.699L1164.76,562.699L1164.76,530.191L1183.26,530.191C1188.96,530.191 1193.37,531.617 1196.48,534.469C1199.59,537.32 1201.14,541.391 1201.14,546.684ZM1164.76,516.664L1164.76,475.453L1149.04,475.453L1149.04,576.227L1183.42,576.227C1193.68,576.227 1201.85,573.637 1207.91,568.453C1213.97,563.266 1217.01,556.109 1217.01,546.988C1217.01,539.84 1215.27,533.852 1211.8,529.027C1208.32,524.203 1203.32,520.805 1196.79,518.844L1220.74,475.453L1203.02,475.453L1181.08,516.664L1164.76,516.664" style="fill:rgb(27,171,154);fill-rule:nonzero;"/>
                <path id="path146" d="M1310.48,502.359C1310.48,493.746 1307.42,486.859 1301.3,481.676C1295.19,476.488 1286.94,473.891 1276.57,473.891C1270.76,473.891 1264.8,474.73 1258.69,476.383C1252.57,478.043 1247.08,480.375 1242.21,483.383L1248.9,495.668C1253.87,492.77 1258.63,490.641 1263.2,489.293C1267.76,487.945 1272.32,487.27 1276.88,487.27C1282.48,487.27 1286.84,488.492 1289.95,490.922C1293.06,493.363 1294.62,496.859 1294.62,501.422C1294.62,504.742 1293.37,507.699 1290.88,510.289C1288.4,512.875 1282.9,515.992 1274.39,519.625C1268.69,522.105 1264.49,524.125 1261.8,525.688C1259.1,527.242 1256.83,528.844 1254.96,530.504C1251.95,533.199 1249.72,536.188 1248.27,539.449C1246.82,542.711 1246.09,546.371 1246.09,550.414C1246.09,558.5 1248.99,565.082 1254.8,570.16C1260.61,575.238 1268.22,577.789 1277.67,577.789C1283.15,577.789 1288.54,577.055 1293.84,575.609C1299.12,574.156 1304.26,572.027 1309.24,569.234L1303.01,556.949C1298.45,559.43 1294.09,561.273 1289.95,562.465C1285.8,563.656 1281.76,564.254 1277.82,564.254C1272.84,564.254 1268.93,563.063 1266.07,560.68C1263.22,558.285 1261.8,555.133 1261.8,551.188C1261.8,547.867 1263.07,544.945 1265.61,542.406C1268.14,539.859 1273.67,536.723 1282.18,532.992C1287.77,530.406 1291.91,528.355 1294.62,526.852C1297.3,525.348 1299.59,523.766 1301.46,522.105C1304.57,519.41 1306.85,516.43 1308.3,513.168C1309.76,509.898 1310.48,506.293 1310.48,502.359" style="fill:rgb(27,171,154);fill-rule:nonzero;"/>
                <path id="path148" d="M1401.67,488.824L1401.67,475.453L1334.64,475.453L1334.64,488.824L1360.46,488.824L1360.46,562.699L1335.11,562.699L1335.11,576.227L1401.2,576.227L1401.2,562.699L1375.86,562.699L1375.86,488.824L1401.67,488.824" style="fill:rgb(27,171,154);fill-rule:nonzero;"/>
                <path id="path150" d="M1465.21,562.699L1465.21,475.453L1449.65,475.453L1449.65,562.699L1419.33,562.699L1419.33,576.227L1495.53,576.227L1495.53,562.699L1465.21,562.699" style="fill:rgb(27,171,154);fill-rule:nonzero;"/>
                <path id="path152" d="M1556.68,514.488L1556.68,475.453L1540.97,475.453L1540.97,514.488L1508.78,576.227L1525.57,576.227L1549.21,529.105L1572.7,576.227L1588.55,576.227L1556.68,514.488" style="fill:rgb(27,171,154);fill-rule:nonzero;"/>
                <path id="path154" d="M685.715,339.684C685.715,326.41 687.449,316.664 690.93,310.445C694.395,304.223 699.813,301.117 707.18,301.117C714.641,301.117 720.105,304.176 723.586,310.289C727.063,316.41 728.801,325.895 728.801,338.754C728.801,351.813 727.063,361.48 723.586,367.758C720.105,374.027 714.641,377.164 707.18,377.164C699.707,377.164 694.27,374.156 690.852,368.148C687.422,362.133 685.715,352.641 685.715,339.684ZM744.973,338.754C744.973,322.055 741.73,309.301 735.242,300.492C728.77,291.684 719.414,287.27 707.18,287.27C694.629,287.27 685.227,291.625 678.945,300.336C672.676,309.047 669.543,322.164 669.543,339.684C669.543,356.273 672.805,369 679.336,377.867C685.867,386.734 695.145,391.168 707.18,391.168C719.824,391.168 729.285,386.813 735.559,378.102C741.824,369.391 744.973,356.273 744.973,338.754" style="fill:rgb(27,171,154);fill-rule:nonzero;"/>
                <path id="path156" d="M792.441,331.598L792.441,288.832L776.895,288.832L776.895,389.605L838.008,389.605L838.008,376.078L792.441,376.078L792.441,345.133L831.172,345.133L831.172,331.598L792.441,331.598" style="fill:rgb(27,171,154);fill-rule:nonzero;"/>
                <path id="path158" d="M927.285,339.684C927.285,326.41 929.016,316.664 932.488,310.445C935.969,304.223 941.379,301.117 948.738,301.117C956.211,301.117 961.68,304.176 965.156,310.289C968.621,316.41 970.359,325.895 970.359,338.754C970.359,351.813 968.621,361.48 965.156,367.758C961.68,374.027 956.211,377.164 948.738,377.164C941.277,377.164 935.84,374.156 932.41,368.148C928.992,362.133 927.285,352.641 927.285,339.684ZM986.531,338.754C986.531,322.055 983.293,309.301 976.816,300.492C970.332,291.684 960.977,287.27 948.738,287.27C936.199,287.27 926.785,291.625 920.52,300.336C914.238,309.047 911.105,322.164 911.105,339.684C911.105,356.273 914.375,369 920.906,377.867C927.441,386.734 936.719,391.168 948.738,391.168C961.395,391.168 970.852,386.813 977.129,378.102C983.398,369.391 986.531,356.273 986.531,338.754" style="fill:rgb(27,171,154);fill-rule:nonzero;"/>
                <path id="path160" d="M1075.72,315.738C1075.72,307.125 1072.67,300.238 1066.54,295.055C1060.43,289.867 1052.19,287.27 1041.82,287.27C1036.01,287.27 1030.05,288.109 1023.94,289.762C1017.81,291.422 1012.32,293.754 1007.45,296.762L1014.14,309.047C1019.11,306.148 1023.88,304.02 1028.45,302.672C1033.01,301.324 1037.57,300.648 1042.13,300.648C1047.72,300.648 1052.08,301.871 1055.2,304.301C1058.3,306.742 1059.86,310.238 1059.86,314.801C1059.86,318.121 1058.61,321.078 1056.12,323.668C1053.64,326.254 1048.14,329.371 1039.64,333.004C1033.94,335.484 1029.74,337.504 1027.04,339.066C1024.35,340.621 1022.07,342.223 1020.21,343.883C1017.2,346.578 1014.96,349.566 1013.52,352.828C1012.06,356.09 1011.34,359.75 1011.34,363.793C1011.34,371.879 1014.24,378.461 1020.05,383.539C1025.85,388.617 1033.47,391.168 1042.91,391.168C1048.4,391.168 1053.79,390.434 1059.08,388.988C1064.37,387.535 1069.5,385.406 1074.48,382.613L1068.25,370.328C1063.69,372.809 1059.34,374.652 1055.2,375.844C1051.04,377.035 1047,377.633 1043.07,377.633C1038.09,377.633 1034.17,376.441 1031.32,374.059C1028.47,371.664 1027.04,368.512 1027.04,364.566C1027.04,361.246 1028.31,358.324 1030.85,355.785C1033.39,353.238 1038.92,350.102 1047.42,346.371C1053.02,343.785 1057.16,341.734 1059.86,340.23C1062.55,338.727 1064.83,337.145 1066.7,335.484C1069.81,332.789 1072.09,329.809 1073.54,326.547C1075,323.277 1075.72,319.672 1075.72,315.738" style="fill:rgb(27,171,154);fill-rule:nonzero;"/>
                <path id="path162" d="M1139.02,376.078L1139.02,288.832L1123.47,288.832L1123.47,376.078L1093.14,376.078L1093.14,389.605L1169.35,389.605L1169.35,376.078L1139.02,376.078" style="fill:rgb(27,171,154);fill-rule:nonzero;"/>
                <path id="path164" d="M1247.72,360.063C1247.72,365.141 1246.14,369.078 1242.98,371.879C1239.81,374.672 1235.44,376.078 1229.84,376.078L1211.33,376.078L1211.33,343.57L1229.84,343.57C1235.54,343.57 1239.95,344.996 1243.06,347.848C1246.17,350.699 1247.72,354.77 1247.72,360.063ZM1211.33,330.043L1211.33,288.832L1195.63,288.832L1195.63,389.605L1229.99,389.605C1240.25,389.605 1248.43,387.016 1254.49,381.832C1260.56,376.645 1263.58,369.488 1263.58,360.367C1263.58,353.219 1261.85,347.23 1258.38,342.406C1254.9,337.582 1249.9,334.184 1243.37,332.223L1267.31,288.832L1249.59,288.832L1227.67,330.043L1211.33,330.043" style="fill:rgb(27,171,154);fill-rule:nonzero;"/>
                <path id="path166" d="M1327.76,378.414L1313.93,328.805L1341.46,328.805L1327.76,378.414ZM1368.52,288.832L1352.5,288.832L1345.03,315.582L1310.35,315.582L1302.88,288.832L1287.49,288.832L1316.88,389.605L1339.12,389.605L1368.52,288.832" style="fill:rgb(27,171,154);fill-rule:nonzero;"/>
                <path id="path168" d="M1455.23,389.605L1427.09,288.832L1404.84,288.832L1376.7,389.605L1393.03,389.605L1416.2,301.117L1439.38,389.605L1455.23,389.605" style="fill:rgb(27,171,154);fill-rule:nonzero;"/>
                <path id="path170" d="M1503.77,378.414L1489.93,328.805L1517.45,328.805L1503.77,378.414ZM1544.51,288.832L1528.5,288.832L1521.04,315.582L1486.35,315.582L1478.89,288.832L1463.49,288.832L1492.88,389.605L1515.13,389.605L1544.51,288.832" style="fill:rgb(27,171,154);fill-rule:nonzero;"/>
            </g>
        </g>
    </g>
</svg>
